<svg xmlns="http://www.w3.org/2000/svg" viewBox="0 0 1280 640" width="1280" height="640">
  <!-- Background with gradient -->
  <defs>
    <linearGradient id="bg-gradient" x1="0%" y1="0%" x2="100%" y2="100%">
      <stop offset="0%" stop-color="#2c3e50" />
      <stop offset="100%" stop-color="#1a2530" />
    </linearGradient>
    <linearGradient id="data-flow" x1="0%" y1="0%" x2="100%" y2="0%">
      <stop offset="0%" stop-color="#3498db" />
      <stop offset="50%" stop-color="#2ecc71" />
      <stop offset="100%" stop-color="#e74c3c" />
    </linearGradient>
    <filter id="glow" x="-20%" y="-20%" width="140%" height="140%">
      <feGaussianBlur stdDeviation="8" result="blur" />
      <feComposite in="SourceGraphic" in2="blur" operator="over" />
    </filter>
  </defs>
  
  <!-- Main Background -->
  <rect width="1280" height="640" fill="url(#bg-gradient)" />
  
  <!-- Grid Pattern -->
  <g stroke="#ffffff" stroke-width="0.5" stroke-opacity="0.1">
    <g id="vertical-lines">
      <line x1="160" y1="0" x2="160" y2="640" />
      <line x1="320" y1="0" x2="320" y2="640" />
      <line x1="480" y1="0" x2="480" y2="640" />
      <line x1="640" y1="0" x2="640" y2="640" />
      <line x1="800" y1="0" x2="800" y2="640" />
      <line x1="960" y1="0" x2="960" y2="640" />
      <line x1="1120" y1="0" x2="1120" y2="640" />
    </g>
    <g id="horizontal-lines">
      <line x1="0" y1="80" x2="1280" y2="80" />
      <line x1="0" y1="160" x2="1280" y2="160" />
      <line x1="0" y1="240" x2="1280" y2="240" />
      <line x1="0" y1="320" x2="1280" y2="320" />
      <line x1="0" y1="400" x2="1280" y2="400" />
      <line x1="0" y1="480" x2="1280" y2="480" />
      <line x1="0" y1="560" x2="1280" y2="560" />
    </g>
  </g>
  
  <!-- NVMe-oF Architecture Illustration -->
  <!-- Host Systems -->
  <g transform="translate(100, 100)">
    <!-- Host System 1 -->
    <rect x="0" y="0" width="200" height="140" rx="10" fill="#34495e" stroke="#3498db" stroke-width="2" />
    <rect x="20" y="20" width="160" height="30" rx="5" fill="#2c3e50" />
    <text x="100" y="40" font-family="Arial, sans-serif" font-size="14" fill="white" text-anchor="middle">Host System</text>
    <rect x="20" y="60" width="160" height="60" rx="5" fill="#2c3e50" />
    <text x="100" y="90" font-family="Arial, sans-serif" font-size="12" fill="#3498db" text-anchor="middle">NVMe-oF Initiator</text>
    <text x="100" y="110" font-family="Arial, sans-serif" font-size="10" fill="white" text-anchor="middle">Application Workload</text>
  </g>
  
  <g transform="translate(980, 100)">
    <!-- Host System 2 -->
    <rect x="0" y="0" width="200" height="140" rx="10" fill="#34495e" stroke="#3498db" stroke-width="2" />
    <rect x="20" y="20" width="160" height="30" rx="5" fill="#2c3e50" />
    <text x="100" y="40" font-family="Arial, sans-serif" font-size="14" fill="white" text-anchor="middle">Host System</text>
    <rect x="20" y="60" width="160" height="60" rx="5" fill="#2c3e50" />
    <text x="100" y="90" font-family="Arial, sans-serif" font-size="12" fill="#3498db" text-anchor="middle">NVMe-oF Initiator</text>
    <text x="100" y="110" font-family="Arial, sans-serif" font-size="10" fill="white" text-anchor="middle">Application Workload</text>
  </g>
  
  <!-- Networking Fabric -->
  <g transform="translate(440, 230)">
    <ellipse cx="200" cy="80" rx="280" ry="100" fill="#2980b9" fill-opacity="0.3" stroke="#3498db" stroke-width="2" />
    <text x="200" y="85" font-family="Arial, sans-serif" font-size="20" fill="white" text-anchor="middle">Networking Fabric</text>
    
    <!-- Network Connections -->
    <g stroke="url(#data-flow)" stroke-width="4" stroke-dasharray="5,5" filter="url(#glow)">
      <path d="M-140,-130 C-100,-80 -50,-30 0,0" fill="none" />
      <path d="M540,-130 C500,-80 450,-30 400,0" fill="none" />
      <path d="M200,80 C200,120 200,160 200,200" fill="none" />
    </g>
    
    <!-- Data Flow Indicators -->
    <g>
      <circle cx="-100" cy="-90" r="5" fill="#3498db">
        <animate attributeName="cy" values="-90;-80;-90" dur="2s" repeatCount="indefinite" />
      </circle>
      <circle cx="500" cy="-90" r="5" fill="#3498db">
        <animate attributeName="cy" values="-90;-80;-90" dur="2s" repeatCount="indefinite" />
      </circle>
      <circle cx="200" cy="140" r="5" fill="#3498db">
        <animate attributeName="cy" values="140;150;140" dur="2s" repeatCount="indefinite" />
      </circle>
    </g>
  </g>
  
  <!-- Storage System -->
  <g transform="translate(440, 430)">
    <rect x="0" y="0" width="400" height="150" rx="10" fill="#34495e" stroke="#e74c3c" stroke-width="2" />
    <rect x="20" y="20" width="360" height="30" rx="5" fill="#2c3e50" />
    <text x="200" y="40" font-family="Arial, sans-serif" font-size="16" fill="white" text-anchor="middle">NVMe-oF Target System</text>
    
    <!-- NVMe Storage Array -->
    <g transform="translate(20, 60)">
      <!-- Drive 1 -->
      <rect x="0" y="0" width="80" height="20" rx="3" fill="#7f8c8d" />
      <rect x="0" y="20" width="80" height="50" rx="3" fill="#95a5a6" />
      <rect x="10" y="30" width="60" height="5" fill="#7f8c8d" />
      <rect x="10" y="40" width="60" height="5" fill="#7f8c8d" />
      <rect x="10" y="50" width="60" height="5" fill="#7f8c8d" />
      
      <!-- Drive 2 -->
      <rect x="90" y="0" width="80" height="20" rx="3" fill="#7f8c8d" />
      <rect x="90" y="20" width="80" height="50" rx="3" fill="#95a5a6" />
      <rect x="100" y="30" width="60" height="5" fill="#7f8c8d" />
      <rect x="100" y="40" width="60" height="5" fill="#7f8c8d" />
      <rect x="100" y="50" width="60" height="5" fill="#7f8c8d" />
      
      <!-- Drive 3 -->
      <rect x="180" y="0" width="80" height="20" rx="3" fill="#7f8c8d" />
      <rect x="180" y="20" width="80" height="50" rx="3" fill="#95a5a6" />
      <rect x="190" y="30" width="60" height="5" fill="#7f8c8d" />
      <rect x="190" y="40" width="60" height="5" fill="#7f8c8d" />
      <rect x="190" y="50" width="60" height="5" fill="#7f8c8d" />
      
      <!-- Drive 4 -->
      <rect x="270" y="0" width="80" height="20" rx="3" fill="#7f8c8d" />
      <rect x="270" y="20" width="80" height="50" rx="3" fill="#95a5a6" />
      <rect x="280" y="30" width="60" height="5" fill="#7f8c8d" />
      <rect x="280" y="40" width="60" height="5" fill="#7f8c8d" />
      <rect x="280" y="50" width="60" height="5" fill="#7f8c8d" />
    </g>
  </g>
  
  <!-- Performance Graphs Overlay -->
  <g transform="translate(20, 520)">
    <!-- Performance Graph Background -->
    <rect x="0" y="0" width="300" height="100" rx="5" fill="rgba(0,0,0,0.3)" />
    
    <!-- Graph Lines -->
    <polyline points="20,80 50,60 80,70 110,40 140,50 170,20 200,30 230,10 260,20 290,5" 
              stroke="#e74c3c" stroke-width="3" fill="none" stroke-linecap="round" />
    <polyline points="20,80 50,70 80,50 110,60 140,30 170,40 200,20 230,30 260,5 290,15" 
              stroke="#2ecc71" stroke-width="3" fill="none" stroke-linecap="round" />
    
    <!-- Graph Legend -->
    <circle cx="30" cy="20" r="5" fill="#e74c3c" />
    <text x="40" y="25" font-family="Arial, sans-serif" font-size="12" fill="white">Throughput</text>
    
    <circle cx="130" cy="20" r="5" fill="#2ecc71" />
    <text x="140" y="25" font-family="Arial, sans-serif" font-size="12" fill="white">IOPS</text>
  </g>
  
  <!-- Bottleneck Analysis -->
  <g transform="translate(960, 520)">
    <!-- Analysis Background -->
    <rect x="0" y="0" width="300" height="100" rx="5" fill="rgba(0,0,0,0.3)" />
    
    <!-- CPU Meter -->
    <rect x="20" y="30" width="100" height="15" rx="3" fill="#34495e" />
    <rect x="20" y="30" width="65" height="15" rx="3" fill="#e67e22" />
    <text x="20" y="25" font-family="Arial, sans-serif" font-size="12" fill="white">CPU: 65%</text>
    
    <!-- Memory Meter -->
    <rect x="20" y="60" width="100" height="15" rx="3" fill="#34495e" />
    <rect x="20" y="60" width="80" height="15" rx="3" fill="#f1c40f" />
    <text x="20" y="55" font-family="Arial, sans-serif" font-size="12" fill="white">Memory: 80%</text>
    
    <!-- Network Meter -->
    <rect x="170" y="30" width="100" height="15" rx="3" fill="#34495e" />
    <rect x="170" y="30" width="45" height="15" rx="3" fill="#2ecc71" />
    <text x="170" y="25" font-family="Arial, sans-serif" font-size="12" fill="white">Network: 45%</text>
    
    <!-- Storage Meter -->
    <rect x="170" y="60" width="100" height="15" rx="3" fill="#34495e" />
    <rect x="170" y="60" width="90" height="15" rx="3" fill="#e74c3c" />
    <text x="170" y="55" font-family="Arial, sans-serif" font-size="12" fill="white">Storage: 90%</text>
  </g>
  
  <!-- Title and Tagline -->
  <g transform="translate(640, 40)" text-anchor="middle">
    <text font-family="Arial, sans-serif" font-weight="bold" font-size="40" fill="white">NVMe-oF Benchmarking Suite</text>
    <text font-family="Arial, sans-serif" font-size="20" y="35" fill="#3498db">Performance Analysis &amp; Optimization for NVMe over Fabrics</text>
  </g>
</svg>