<svg xmlns="http://www.w3.org/2000/svg" viewBox="0 0 500 500" width="500" height="500">
  <!-- Definitions for gradients and filters -->
  <defs>
    <!-- Background gradient -->
    <linearGradient id="bg-gradient" x1="0%" y1="0%" x2="100%" y2="100%">
      <stop offset="0%" stop-color="#f8f9fa" />
      <stop offset="100%" stop-color="#e9ecef" />
    </linearGradient>
    
    <!-- Drive gradient -->
    <linearGradient id="drive-gradient" x1="0%" y1="0%" x2="0%" y2="100%">
      <stop offset="0%" stop-color="#34495e" />
      <stop offset="100%" stop-color="#2c3e50" />
    </linearGradient>
    
    <!-- LED indicator gradient -->
    <linearGradient id="led-gradient" x1="0%" y1="0%" x2="0%" y2="100%">
      <stop offset="0%" stop-color="#3498db" />
      <stop offset="100%" stop-color="#2980b9" />
    </linearGradient>
    
    <!-- Network fabric gradient -->
    <linearGradient id="network-gradient" x1="0%" y1="0%" x2="100%" y2="0%">
      <stop offset="0%" stop-color="#e74c3c" />
      <stop offset="50%" stop-color="#9b59b6" />
      <stop offset="100%" stop-color="#3498db" />
    </linearGradient>
    
    <!-- Performance gradient 1 -->
    <linearGradient id="perf-gradient-1" x1="0%" y1="0%" x2="0%" y2="100%">
      <stop offset="0%" stop-color="#27ae60" />
      <stop offset="100%" stop-color="#2ecc71" />
    </linearGradient>
    
    <!-- Performance gradient 2 -->
    <linearGradient id="perf-gradient-2" x1="0%" y1="0%" x2="0%" y2="100%">
      <stop offset="0%" stop-color="#f39c12" />
      <stop offset="100%" stop-color="#f1c40f" />
    </linearGradient>
    
    <!-- Drop shadow -->
    <filter id="drop-shadow" x="-20%" y="-20%" width="140%" height="140%">
      <feGaussianBlur in="SourceAlpha" stdDeviation="3" />
      <feOffset dx="2" dy="2" result="offsetblur" />
      <feComponentTransfer>
        <feFuncA type="linear" slope="0.2" />
      </feComponentTransfer>
      <feMerge>
        <feMergeNode />
        <feMergeNode in="SourceGraphic" />
      </feMerge>
    </filter>
    
    <!-- Glow effect -->
    <filter id="glow" x="-20%" y="-20%" width="140%" height="140%">
      <feGaussianBlur stdDeviation="5" result="blur" />
      <feComposite in="SourceGraphic" in2="blur" operator="over" />
    </filter>
  </defs>
  
  <!-- Background with rounded corners and gradient -->
  <rect width="500" height="500" rx="50" fill="url(#bg-gradient)" filter="url(#drop-shadow)" />
  
  <!-- Storage and Network Elements -->
  <g transform="translate(60, 80)">
    <!-- Storage Drive Icons - Enhanced with 3D effect -->
    <g filter="url(#drop-shadow)">
      <!-- Drive 1 -->
      <rect x="0" y="0" width="120" height="30" rx="5" fill="url(#drive-gradient)" />
      <rect x="10" y="10" width="20" height="10" rx="2" fill="url(#led-gradient)">
        <animate attributeName="opacity" values="1;0.7;1" dur="3s" repeatCount="indefinite" />
      </rect>
      <rect x="40" y="10" width="70" height="10" rx="2" fill="#ecf0f1" />
      <line x1="45" y1="15" x2="105" y2="15" stroke="#bdc3c7" stroke-width="1" stroke-dasharray="2,2" />
      
      <!-- Drive 2 -->
      <rect x="0" y="40" width="120" height="30" rx="5" fill="url(#drive-gradient)" />
      <rect x="10" y="50" width="20" height="10" rx="2" fill="url(#led-gradient)">
        <animate attributeName="opacity" values="1;0.7;1" dur="4s" repeatCount="indefinite" />
      </rect>
      <rect x="40" y="50" width="70" height="10" rx="2" fill="#ecf0f1" />
      <line x1="45" y1="55" x2="105" y2="55" stroke="#bdc3c7" stroke-width="1" stroke-dasharray="2,2" />
      
      <!-- Drive 3 -->
      <rect x="0" y="80" width="120" height="30" rx="5" fill="url(#drive-gradient)" />
      <rect x="10" y="90" width="20" height="10" rx="2" fill="url(#led-gradient)">
        <animate attributeName="opacity" values="1;0.7;1" dur="2.5s" repeatCount="indefinite" />
      </rect>
      <rect x="40" y="90" width="70" height="10" rx="2" fill="#ecf0f1" />
      <line x1="45" y1="95" x2="105" y2="95" stroke="#bdc3c7" stroke-width="1" stroke-dasharray="2,2" />
      
      <!-- Drive 4 -->
      <rect x="0" y="120" width="120" height="30" rx="5" fill="url(#drive-gradient)" />
      <rect x="10" y="130" width="20" height="10" rx="2" fill="url(#led-gradient)">
        <animate attributeName="opacity" values="1;0.7;1" dur="3.5s" repeatCount="indefinite" />
      </rect>
      <rect x="40" y="130" width="70" height="10" rx="2" fill="#ecf0f1" />
      <line x1="45" y1="135" x2="105" y2="135" stroke="#bdc3c7" stroke-width="1" stroke-dasharray="2,2" />
    </g>
    
    <!-- Network/Fabric Connection - Enhanced with gradient and animation -->
    <g filter="url(#glow)">
      <!-- Main network path with gradient -->
      <path d="M130,75 C190,75 190,155 250,155 C310,155 310,75 370,75" 
            stroke="url(#network-gradient)" stroke-width="8" fill="none" 
            stroke-linecap="round" />
            
      <!-- Data flow animation -->
      <path d="M130,75 C190,75 190,155 250,155 C310,155 310,75 370,75" 
            stroke="#ffffff" stroke-width="4" fill="none" 
            stroke-linecap="round" stroke-dasharray="5,15" opacity="0.6">
        <animate attributeName="stroke-dashoffset" values="20;0" dur="2s" repeatCount="indefinite" />
      </path>
      
      <!-- Connection nodes with pulse animation -->
      <circle cx="130" cy="75" r="12" fill="#e74c3c">
        <animate attributeName="r" values="10;12;10" dur="3s" repeatCount="indefinite" />
      </circle>
      <circle cx="250" cy="155" r="12" fill="#9b59b6">
        <animate attributeName="r" values="10;12;10" dur="3s" repeatCount="indefinite" begin="1s" />
      </circle>
      <circle cx="370" cy="75" r="12" fill="#3498db">
        <animate attributeName="r" values="10;12;10" dur="3s" repeatCount="indefinite" begin="2s" />
      </circle>
    </g>
    
    <!-- Benchmark Graph Lines - Enhanced with gradients and better styling -->
    <g transform="translate(250, 160)" filter="url(#drop-shadow)">
      <!-- Grid lines -->
      <g stroke="#bdc3c7" stroke-width="0.5" stroke-dasharray="2,2" opacity="0.5">
        <line x1="0" y1="0" x2="0" y2="100" />
        <line x1="30" y1="0" x2="30" y2="100" />
        <line x1="60" y1="0" x2="60" y2="100" />
        <line x1="90" y1="0" x2="90" y2="100" />
        <line x1="120" y1="0" x2="120" y2="100" />
        <line x1="150" y1="0" x2="150" y2="100" />
        
        <line x1="0" y1="0" x2="150" y2="0" />
        <line x1="0" y1="25" x2="150" y2="25" />
        <line x1="0" y1="50" x2="150" y2="50" />
        <line x1="0" y1="75" x2="150" y2="75" />
        <line x1="0" y1="100" x2="150" y2="100" />
      </g>
      
      <!-- Performance lines -->
      <polyline points="0,100 30,80 60,90 90,40 120,60 150,20" 
                stroke="url(#perf-gradient-1)" stroke-width="6" fill="none" 
                stroke-linecap="round" stroke-linejoin="round" />
                
      <polyline points="0,100 30,70 60,80 90,50 120,30 150,10" 
                stroke="url(#perf-gradient-2)" stroke-width="3" fill="none" 
                stroke-linecap="round" stroke-linejoin="round" />
                
      <!-- Data points -->
      <circle cx="0" cy="100" r="4" fill="#27ae60" />
      <circle cx="30" cy="80" r="4" fill="#27ae60" />
      <circle cx="60" cy="90" r="4" fill="#27ae60" />
      <circle cx="90" cy="40" r="4" fill="#27ae60" />
      <circle cx="120" cy="60" r="4" fill="#27ae60" />
      <circle cx="150" cy="20" r="4" fill="#27ae60" />
      
      <circle cx="0" cy="100" r="2" fill="#f1c40f" />
      <circle cx="30" cy="70" r="2" fill="#f1c40f" />
      <circle cx="60" cy="80" r="2" fill="#f1c40f" />
      <circle cx="90" cy="50" r="2" fill="#f1c40f" />
      <circle cx="120" cy="30" r="2" fill="#f1c40f" />
      <circle cx="150" cy="10" r="2" fill="#f1c40f" />
    </g>
  </g>
  
  <!-- Text Elements - Enhanced with better typography and effects -->
  <g transform="translate(250, 370)" text-anchor="middle" filter="url(#drop-shadow)">
    <text font-family="Arial, sans-serif" font-weight="bold" font-size="54" fill="#2c3e50">NVMe-oF</text>
    <text font-family="Arial, sans-serif" font-weight="normal" font-size="30" y="40" fill="#34495e">Benchmarking Suite</text>
    
    <!-- Decorative underline -->
    <line x1="-120" y1="55" x2="120" y2="55" stroke="#3498db" stroke-width="3" stroke-linecap="round" />
  </g>
</svg>